<?xml version="1.0" standalone="no"?>
<!DOCTYPE svg PUBLIC "-//W3C//DTD SVG 20010904//EN"
 "http://www.w3.org/TR/2001/REC-SVG-20010904/DTD/svg10.dtd">
<svg version="1.0" xmlns="http://www.w3.org/2000/svg"
 width="388.000000pt" height="388.000000pt" viewBox="0 0 388.000000 388.000000"
 preserveAspectRatio="xMidYMid meet">
<metadata>
Created by potrace 1.11, written by Peter Selinger 2001-2013
</metadata>
<g transform="translate(0.000000,388.000000) scale(0.100000,-0.100000)"
fill="#000000" stroke="none">
<path d="M1595 3708 c-166 -43 -361 -104 -421 -133 l-72 -35 -7 -64 -7 -65
-77 -50 -76 -51 -7 42 c-4 22 -10 43 -12 46 -15 14 -292 -230 -391 -346 -39
-45 -93 -118 -119 -162 -48 -80 -161 -327 -177 -385 -4 -16 -27 -82 -49 -145
-23 -63 -46 -139 -51 -169 l-11 -54 45 -46 c76 -79 77 -82 77 -216 0 -200 36
-394 106 -581 19 -51 34 -96 34 -102 0 -5 -9 -29 -20 -53 -11 -24 -20 -60 -20
-79 0 -50 46 -233 71 -283 58 -114 636 -617 709 -617 34 0 71 40 95 105 10 25
19 45 21 45 2 0 41 -15 86 -34 667 -275 1451 -112 1941 403 32 33 60 61 61 61
1 0 -2 -22 -7 -49 -9 -40 -7 -57 7 -95 10 -25 21 -46 26 -46 4 0 57 73 117
163 160 236 256 407 239 424 -3 4 -33 2 -67 -3 -42 -7 -58 -7 -55 0 97 233
141 388 157 556 6 58 13 116 16 130 l5 25 13 -25 c10 -19 12 -53 8 -138 -5
-99 -4 -114 12 -132 24 -26 42 -25 48 3 31 128 42 514 18 637 -37 189 -176
524 -307 742 -38 63 -77 83 -142 76 -34 -4 -40 0 -136 100 -192 199 -393 338
-620 428 -40 16 -81 40 -97 58 -26 30 -29 30 -155 38 -71 4 -158 12 -194 17
-75 12 -349 13 -429 2 -53 -8 -54 -7 -89 31 -38 41 -38 41 -97 26z m605 -68
c108 -14 125 -19 111 -33 -15 -15 -14 -51 3 -92 12 -28 30 -42 105 -80 50 -25
104 -45 120 -45 77 0 105 38 77 105 -9 21 -15 40 -12 42 2 2 26 -5 54 -16 221
-87 482 -272 642 -454 l60 -68 -41 -49 c-23 -27 -50 -52 -59 -55 -25 -8 -63 9
-144 64 l-71 49 -159 1 c-148 1 -162 -1 -215 -24 -42 -18 -77 -25 -141 -27
-81 -3 -85 -2 -88 19 -2 12 6 40 17 62 23 44 27 91 11 121 -14 26 -154 90
-197 90 -60 0 -129 -47 -335 -228 -120 -105 -191 -187 -203 -233 -5 -21 0 -34
25 -63 l32 -36 -16 -40 c-19 -48 -21 -111 -4 -128 16 -16 71 -15 112 2 50 21
111 80 152 147 36 60 79 93 115 87 18 -3 17 -9 -19 -77 -41 -79 -96 -151 -114
-151 -6 0 -35 -18 -64 -40 -29 -22 -69 -47 -88 -57 l-36 -16 -58 55 c-64 61
-91 74 -121 58 -23 -12 -28 -35 -35 -180 -9 -163 11 -182 138 -136 39 14 141
46 226 71 l155 45 18 -23 c17 -19 18 -32 12 -104 l-7 -83 27 -10 c36 -14 92
-3 109 21 10 15 12 49 8 139 -3 88 -1 124 8 135 19 23 37 2 50 -59 6 -29 20
-76 30 -105 29 -74 26 -88 -28 -141 -66 -67 -102 -75 -272 -62 -110 8 -148 15
-200 37 -129 54 -229 42 -292 -37 -105 -133 -153 -282 -114 -356 19 -37 206
-252 277 -319 68 -64 85 -72 181 -84 104 -13 162 -40 194 -90 13 -21 24 -45
24 -54 0 -8 4 -15 8 -15 5 0 19 -35 31 -77 32 -108 58 -180 76 -206 8 -13 39
-96 70 -186 64 -190 65 -190 118 -248 71 -77 136 -99 202 -67 43 20 61 48 96
151 19 56 41 100 68 132 63 75 146 214 161 268 7 26 33 97 57 156 71 175 73
210 22 474 -12 60 -11 59 -112 111 -119 62 -241 147 -285 200 -65 78 -141 201
-159 258 -16 51 -16 56 0 71 18 18 18 19 61 -98 20 -55 40 -75 192 -190 234
-176 314 -188 314 -48 0 57 -21 97 -80 154 -106 102 -121 206 -27 181 12 -3
54 -33 92 -67 84 -73 118 -92 156 -87 41 6 56 -13 149 -200 50 -100 91 -169
106 -178 33 -22 70 -11 95 29 19 29 20 43 15 162 -3 72 -2 136 3 144 5 7 34
23 65 36 54 22 57 22 66 5 18 -33 23 -212 10 -316 -26 -214 -122 -506 -187
-573 -18 -19 -36 -46 -39 -60 -12 -57 -33 -91 -57 -91 -13 0 -33 -10 -45 -22
-23 -26 -63 -113 -55 -122 22 -21 -185 -229 -338 -339 -112 -80 -337 -194
-469 -237 -329 -107 -695 -113 -1025 -18 -82 23 -275 97 -275 105 0 3 7 33 16
67 17 67 45 120 142 270 112 173 121 214 77 353 -14 43 -25 88 -25 99 0 31
-80 116 -158 168 -37 24 -111 65 -164 91 -104 50 -130 73 -181 164 -45 79 -99
131 -138 131 -68 0 -147 84 -157 166 -2 24 1 72 8 108 21 111 1 128 -111 101
-65 -16 -73 -16 -113 -1 -50 19 -59 38 -42 88 23 65 144 218 173 218 25 0 90
-77 110 -129 21 -57 29 -63 72 -57 46 7 81 32 81 59 0 12 -18 74 -40 137 -47
135 -52 209 -20 274 11 23 54 79 95 126 41 47 85 105 97 129 20 41 20 49 9
102 -8 38 -9 95 -5 164 5 70 3 105 -3 105 -6 0 -13 9 -16 19 -4 15 9 29 53 60
62 44 92 59 89 45 -1 -5 2 -20 8 -34 5 -14 8 -56 6 -95 -2 -38 -4 -83 -4 -99
-2 -39 31 -66 82 -66 25 0 86 20 166 54 71 30 148 57 173 61 37 6 54 18 100
64 62 64 113 152 133 232 12 46 12 58 0 87 -8 19 -11 37 -8 40 20 20 323 28
455 12z m-1858 -1763 c24 -28 58 -55 92 -71 32 -15 82 -53 118 -89 35 -34 89
-85 122 -112 53 -45 59 -54 63 -97 7 -65 -13 -135 -46 -156 -19 -13 -48 -17
-117 -17 -105 0 -126 -12 -159 -86 -10 -22 -22 -36 -26 -32 -17 18 -81 225
-105 337 -17 85 -26 167 -30 276 l-5 155 28 -31 c15 -17 45 -51 65 -77z"/>
</g>
</svg>
